<?xml version="1.0" encoding="UTF-8" standalone="no"?><svg xmlns="http://www.w3.org/2000/svg" xmlns:xlink="http://www.w3.org/1999/xlink" contentScriptType="application/ecmascript" contentStyleType="text/css" height="542px" preserveAspectRatio="none" style="width:687px;height:542px;background:#00000000;" version="1.1" viewBox="0 0 687 542" width="687px" zoomAndPan="magnify"><defs><filter height="300%" id="f1dfqvzbc3bn05" width="300%" x="-1" y="-1"><feGaussianBlur result="blurOut" stdDeviation="2.0"/><feColorMatrix in="blurOut" result="blurOut2" type="matrix" values="0 0 0 0 0 0 0 0 0 0 0 0 0 0 0 0 0 0 .4 0"/><feOffset dx="4.0" dy="4.0" in="blurOut2" result="blurOut3"/><feBlend in="SourceGraphic" in2="blurOut3" mode="normal"/></filter></defs><g><text fill="#000000" font-family="sans-serif" font-size="18" lengthAdjust="spacing" text-decoration="underline" textLength="326" x="179.5" y="30.6279">Room Booking Manager Activity Diagram</text><text fill="#000000" font-family="sans-serif" font-size="18" lengthAdjust="spacing" textLength="0" x="345" y="55.2109"/><ellipse cx="402" cy="69.166" fill="#000000" filter="url(#f1dfqvzbc3bn05)" rx="10" ry="10" style="stroke:none;stroke-width:1.0;"/><rect fill="#FEFECE" filter="url(#f1dfqvzbc3bn05)" height="36.3887" rx="12.5" ry="12.5" style="stroke:#A80036;stroke-width:1.5;" width="124" x="340" y="155.5547"/><text fill="#000000" font-family="sans-serif" font-size="12" lengthAdjust="spacing" textLength="104" x="350" y="179.3066">process command</text><polygon fill="#FEFECE" filter="url(#f1dfqvzbc3bn05)" points="388,211.9434,416,211.9434,428,223.9434,416,235.9434,388,235.9434,376,223.9434,388,211.9434" style="stroke:#A80036;stroke-width:1.5;"/><text fill="#000000" font-family="sans-serif" font-size="11" lengthAdjust="spacing" textLength="28" x="388" y="229.0378">valid?</text><text fill="#000000" font-family="sans-serif" font-size="11" lengthAdjust="spacing" textLength="18" x="358" y="221.5264">yes</text><text fill="#000000" font-family="sans-serif" font-size="11" lengthAdjust="spacing" textLength="12" x="428" y="221.5264">no</text><rect filter="url(#f1dfqvzbc3bn05)" height="191.5088" style="stroke:#000000;stroke-width:2.0;fill:none;" width="454" x="11" y="245.9434"/><path d="M82,245.9434 L82,258.0635 L72,268.0635 L11,268.0635 " fill="none" style="stroke:#000000;stroke-width:2.0;"/><text fill="#000000" font-family="sans-serif" font-size="14" lengthAdjust="spacing" textLength="61" x="14" y="262.9873">Execution</text><polygon fill="#FEFECE" filter="url(#f1dfqvzbc3bn05)" points="33,310.0635,94,310.0635,106,322.0635,94,334.0635,33,334.0635,21,322.0635,33,310.0635" style="stroke:#A80036;stroke-width:1.5;"/><text fill="#000000" font-family="sans-serif" font-size="11" lengthAdjust="spacing" textLength="61" x="33" y="327.158">addMeeting?</text><rect fill="#FEFECE" filter="url(#f1dfqvzbc3bn05)" height="36.3887" rx="12.5" ry="12.5" style="stroke:#A80036;stroke-width:1.5;" width="84" x="21.5" y="354.0635"/><text fill="#000000" font-family="sans-serif" font-size="12" lengthAdjust="spacing" textLength="64" x="31.5" y="377.8154">addMeeting</text><polygon fill="#FEFECE" filter="url(#f1dfqvzbc3bn05)" points="164.5,310.0635,188.5,310.0635,200.5,322.0635,188.5,334.0635,164.5,334.0635,152.5,322.0635,164.5,310.0635" style="stroke:#A80036;stroke-width:1.5;"/><text fill="#000000" font-family="sans-serif" font-size="11" lengthAdjust="spacing" textLength="9" x="172" y="327.158">...</text><rect fill="#FEFECE" filter="url(#f1dfqvzbc3bn05)" height="36.3887" rx="12.5" ry="12.5" style="stroke:#A80036;stroke-width:1.5;" width="121" x="116" y="354.0635"/><text fill="#000000" font-family="sans-serif" font-size="12" lengthAdjust="spacing" textLength="101" x="126" y="377.8154">execute command</text><polygon fill="#FEFECE" filter="url(#f1dfqvzbc3bn05)" points="269,310.0635,333,310.0635,345,322.0635,333,334.0635,269,334.0635,257,322.0635,269,310.0635" style="stroke:#A80036;stroke-width:1.5;"/><text fill="#000000" font-family="sans-serif" font-size="11" lengthAdjust="spacing" textLength="64" x="269" y="327.158">endProgram?</text><ellipse cx="301" cy="365.0635" filter="url(#f1dfqvzbc3bn05)" rx="11" ry="11" style="stroke:#000000;stroke-width:1.0;fill:none;"/><ellipse cx="301" cy="365.0635" fill="#000000" rx="6" ry="6" style="stroke:#000000;stroke-width:1.0;"/><rect fill="#FEFECE" filter="url(#f1dfqvzbc3bn05)" height="36.3887" rx="12.5" ry="12.5" style="stroke:#A80036;stroke-width:1.5;" width="90" x="365" y="357.0635"/><text fill="#000000" font-family="sans-serif" font-size="12" lengthAdjust="spacing" textLength="70" x="375" y="380.8154">internal error</text><rect filter="url(#f1dfqvzbc3bn05)" height="159.5088" style="stroke:#000000;stroke-width:2.0;fill:none;" width="172" x="475" y="245.9434"/><path d="M513,245.9434 L513,258.0635 L503,268.0635 L475,268.0635 " fill="none" style="stroke:#000000;stroke-width:2.0;"/><text fill="#000000" font-family="sans-serif" font-size="14" lengthAdjust="spacing" textLength="28" x="478" y="262.9873">Help</text><rect fill="#FEFECE" filter="url(#f1dfqvzbc3bn05)" height="36.3887" rx="12.5" ry="12.5" style="stroke:#A80036;stroke-width:1.5;" width="143" x="489.5" y="285.0635"/><text fill="#000000" font-family="sans-serif" font-size="12" lengthAdjust="spacing" textLength="123" x="499.5" y="308.8154">prompt syntax warning</text><rect fill="#FEFECE" filter="url(#f1dfqvzbc3bn05)" height="36.3887" rx="12.5" ry="12.5" style="stroke:#A80036;stroke-width:1.5;" width="152" x="485" y="356.4521"/><text fill="#000000" font-family="sans-serif" font-size="12" lengthAdjust="spacing" textLength="132" x="495" y="380.2041">generate help message</text><rect fill="#FEFECE" filter="url(#f1dfqvzbc3bn05)" height="36.3887" rx="12.5" ry="12.5" style="stroke:#A80036;stroke-width:1.5;" width="104" x="350" y="99.166"/><text fill="#000000" font-family="sans-serif" font-size="12" lengthAdjust="spacing" textLength="84" x="360" y="122.918">read command</text><line style="stroke:#A80036;stroke-width:1.5;" x1="63.5" x2="63.5" y1="334.0635" y2="354.0635"/><polygon fill="#A80036" points="59.5,344.0635,63.5,354.0635,67.5,344.0635,63.5,348.0635" style="stroke:#A80036;stroke-width:1.0;"/><line style="stroke:#A80036;stroke-width:1.5;" x1="63.5" x2="63.5" y1="390.4521" y2="425.4521"/><polygon fill="#A80036" points="59.5,415.4521,63.5,425.4521,67.5,415.4521,63.5,419.4521" style="stroke:#A80036;stroke-width:1.0;"/><line style="stroke:#A80036;stroke-width:1.5;" x1="176.5" x2="176.5" y1="334.0635" y2="354.0635"/><polygon fill="#A80036" points="172.5,344.0635,176.5,354.0635,180.5,344.0635,176.5,348.0635" style="stroke:#A80036;stroke-width:1.0;"/><line style="stroke:#A80036;stroke-width:1.5;" x1="176.5" x2="176.5" y1="390.4521" y2="425.4521"/><polygon fill="#A80036" points="172.5,415.4521,176.5,425.4521,180.5,415.4521,176.5,419.4521" style="stroke:#A80036;stroke-width:1.0;"/><line style="stroke:#A80036;stroke-width:1.5;" x1="301" x2="301" y1="334.0635" y2="354.0635"/><polygon fill="#A80036" points="297,344.0635,301,354.0635,305,344.0635,301,348.0635" style="stroke:#A80036;stroke-width:1.0;"/><line style="stroke:#A80036;stroke-width:1.5;" x1="106" x2="152.5" y1="322.0635" y2="322.0635"/><polygon fill="#A80036" points="142.5,318.0635,152.5,322.0635,142.5,326.0635,146.5,322.0635" style="stroke:#A80036;stroke-width:1.0;"/><line style="stroke:#A80036;stroke-width:1.5;" x1="200.5" x2="257" y1="322.0635" y2="322.0635"/><polygon fill="#A80036" points="247,318.0635,257,322.0635,247,326.0635,251,322.0635" style="stroke:#A80036;stroke-width:1.0;"/><line style="stroke:#A80036;stroke-width:1.5;" x1="376" x2="63.5" y1="223.9434" y2="223.9434"/><line style="stroke:#A80036;stroke-width:1.5;" x1="63.5" x2="63.5" y1="223.9434" y2="310.0635"/><polygon fill="#A80036" points="59.5,300.0635,63.5,310.0635,67.5,300.0635,63.5,304.0635" style="stroke:#A80036;stroke-width:1.0;"/><line style="stroke:#A80036;stroke-width:1.5;" x1="345" x2="410" y1="322.0635" y2="322.0635"/><line style="stroke:#A80036;stroke-width:1.5;" x1="410" x2="410" y1="322.0635" y2="357.0635"/><polygon fill="#A80036" points="406,347.0635,410,357.0635,414,347.0635,410,351.0635" style="stroke:#A80036;stroke-width:1.0;"/><line style="stroke:#A80036;stroke-width:1.5;" x1="410" x2="410" y1="393.4521" y2="425.4521"/><polygon fill="#A80036" points="406,415.4521,410,425.4521,414,415.4521,410,419.4521" style="stroke:#A80036;stroke-width:1.0;"/><line style="stroke:#A80036;stroke-width:1.5;" x1="63.5" x2="410" y1="425.4521" y2="425.4521"/><line style="stroke:#A80036;stroke-width:1.5;" x1="561" x2="561" y1="321.4521" y2="356.4521"/><polygon fill="#A80036" points="557,346.4521,561,356.4521,565,346.4521,561,350.4521" style="stroke:#A80036;stroke-width:1.0;"/><line style="stroke:#A80036;stroke-width:1.5;" x1="428" x2="561" y1="223.9434" y2="223.9434"/><line style="stroke:#A80036;stroke-width:1.5;" x1="561" x2="561" y1="223.9434" y2="285.0635"/><polygon fill="#A80036" points="557,275.0635,561,285.0635,565,275.0635,561,279.0635" style="stroke:#A80036;stroke-width:1.0;"/><line style="stroke:#A80036;stroke-width:1.5;" x1="233" x2="233" y1="425.4521" y2="455.4521"/><polygon fill="#A80036" points="229,445.4521,233,455.4521,237,445.4521,233,449.4521" style="stroke:#A80036;stroke-width:1.0;"/><line style="stroke:#A80036;stroke-width:1.5;" x1="561" x2="561" y1="392.8408" y2="455.4521"/><polygon fill="#A80036" points="557,445.4521,561,455.4521,565,445.4521,561,449.4521" style="stroke:#A80036;stroke-width:1.0;"/><line style="stroke:#A80036;stroke-width:1.5;" x1="233" x2="561" y1="455.4521" y2="455.4521"/><line style="stroke:#A80036;stroke-width:1.5;" x1="402" x2="402" y1="191.9434" y2="211.9434"/><polygon fill="#A80036" points="398,201.9434,402,211.9434,406,201.9434,402,205.9434" style="stroke:#A80036;stroke-width:1.0;"/><line style="stroke:#A80036;stroke-width:1.5;" x1="402" x2="402" y1="135.5547" y2="155.5547"/><polygon fill="#A80036" points="398,145.5547,402,155.5547,406,145.5547,402,149.5547" style="stroke:#A80036;stroke-width:1.0;"/><line style="stroke:#A80036;stroke-width:1.5;" x1="402" x2="402" y1="455.4521" y2="503.4521"/><line style="stroke:#A80036;stroke-width:1.5;" x1="402" x2="661" y1="503.4521" y2="503.4521"/><polygon fill="#A80036" points="657,322.9063,661,312.9063,665,322.9063,661,318.9063" style="stroke:#A80036;stroke-width:1.5;"/><line style="stroke:#A80036;stroke-width:1.5;" x1="661" x2="661" y1="117.3604" y2="503.4521"/><line style="stroke:#A80036;stroke-width:1.5;" x1="661" x2="454" y1="117.3604" y2="117.3604"/><polygon fill="#A80036" points="464,113.3604,454,117.3604,464,121.3604,460,117.3604" style="stroke:#A80036;stroke-width:1.0;"/><line style="stroke:#A80036;stroke-width:1.5;" x1="402" x2="402" y1="79.166" y2="99.166"/><polygon fill="#A80036" points="398,89.166,402,99.166,406,89.166,402,93.166" style="stroke:#A80036;stroke-width:1.0;"/><text fill="#888888" font-family="sans-serif" font-size="10" lengthAdjust="spacing" textLength="493" x="182" y="514.9121">RBM(Room Booking Manager) proposed by Group G06: MAN Furui, WANG Meng, WU Junyu, XING Shiji.</text><text fill="#888888" font-family="sans-serif" font-size="10" lengthAdjust="spacing" textLength="442" x="233" y="528.5693">COMP2432 Operating Systems, Year 2020-21 Spring, The Hong Kong Polytechnic University.</text><!--MD5=[4d591eb52e350f193b9ccd45971a3a81]
@startuml
title __Room Booking Manager Activity Diagram__\n

skinparam ConditionEndStyle hline
skinparam BackgroundColor transparent
skinparam PartitionBackgroundColor transparent

start
	repeat :read command;
	:process command;

	if (valid?)
		->yes;
		partition Execution {
			if (addMeeting?)
				:addMeeting;
			elseif (...)
				:execute command;
			elseif (endProgram?)
				stop
			else 
				:internal error;
			endif
		}
	else
		->no;
		partition Help {
			:prompt syntax warning;
			:generate help message;
		}
	endif
repeat while

right footer
RBM(Room Booking Manager) proposed by Group G06: MAN Furui, WANG Meng, WU Junyu, XING Shiji.
COMP2432 Operating Systems, Year 2020-21 Spring, The Hong Kong Polytechnic University.
endfooter

@enduml

PlantUML version 1.2021.4(Sun Apr 04 16:49:39 CST 2021)
(GPL source distribution)
Java Runtime: Java(TM) SE Runtime Environment
JVM: Java HotSpot(TM) 64-Bit Server VM
Default Encoding: GBK
Language: zh
Country: CN
--></g></svg>