<?xml version="1.0" encoding="UTF-8" standalone="no"?><svg xmlns="http://www.w3.org/2000/svg" xmlns:xlink="http://www.w3.org/1999/xlink" contentScriptType="application/ecmascript" contentStyleType="text/css" height="616px" preserveAspectRatio="none" style="width:1011px;height:616px;" version="1.1" viewBox="0 0 1011 616" width="1011px" zoomAndPan="magnify"><defs><filter height="300%" id="f1q07gdahnxshg" width="300%" x="-1" y="-1"><feGaussianBlur result="blurOut" stdDeviation="2.0"/><feColorMatrix in="blurOut" result="blurOut2" type="matrix" values="0 0 0 0 0 0 0 0 0 0 0 0 0 0 0 0 0 0 .4 0"/><feOffset dx="4.0" dy="4.0" in="blurOut2" result="blurOut3"/><feBlend in="SourceGraphic" in2="blurOut3" mode="normal"/></filter></defs><g><text fill="#000000" font-family="sans-serif" font-size="18" lengthAdjust="spacing" text-decoration="underline" textLength="315" x="341.6275" y="20.6279">Room Booking Manager Class Diagram</text><text fill="#000000" font-family="sans-serif" font-size="18" lengthAdjust="spacing" textLength="0" x="501.6275" y="45.2109"/><!--MD5=[3eae4776c3b9c1cd85205e10c2ca709f]
cluster report--><rect fill="#FFFFFF" filter="url(#f1q07gdahnxshg)" height="109" style="stroke:#000000;stroke-width:1.5;" width="153" x="29.255" y="461.166"/><rect fill="#FFFFFF" height="10" style="stroke:#000000;stroke-width:1.5;" width="15" x="162.255" y="466.166"/><rect fill="#FFFFFF" height="2" style="stroke:#000000;stroke-width:1.5;" width="4" x="160.255" y="468.166"/><rect fill="#FFFFFF" height="2" style="stroke:#000000;stroke-width:1.5;" width="4" x="160.255" y="472.166"/><text fill="#000000" font-family="sans-serif" font-size="14" font-weight="bold" lengthAdjust="spacing" textLength="44" x="83.755" y="490.21">report</text><!--MD5=[08e9bca1417daa74bf89fbf3855bbac8]
cluster timeline--><rect fill="#FFFFFF" filter="url(#f1q07gdahnxshg)" height="109" style="stroke:#000000;stroke-width:1.5;" width="163" x="435.255" y="312.166"/><rect fill="#FFFFFF" height="10" style="stroke:#000000;stroke-width:1.5;" width="15" x="578.255" y="317.166"/><rect fill="#FFFFFF" height="2" style="stroke:#000000;stroke-width:1.5;" width="4" x="576.255" y="319.166"/><rect fill="#FFFFFF" height="2" style="stroke:#000000;stroke-width:1.5;" width="4" x="576.255" y="323.166"/><text fill="#000000" font-family="sans-serif" font-size="14" font-weight="bold" lengthAdjust="spacing" textLength="56" x="488.755" y="341.21">timeline</text><!--MD5=[677f80d3330265c2e4615802a457ba20]
cluster struct--><rect fill="#FFFFFF" filter="url(#f1q07gdahnxshg)" height="109" style="stroke:#000000;stroke-width:1.5;" width="423" x="241.255" y="461.166"/><rect fill="#FFFFFF" height="10" style="stroke:#000000;stroke-width:1.5;" width="15" x="644.255" y="466.166"/><rect fill="#FFFFFF" height="2" style="stroke:#000000;stroke-width:1.5;" width="4" x="642.255" y="468.166"/><rect fill="#FFFFFF" height="2" style="stroke:#000000;stroke-width:1.5;" width="4" x="642.255" y="472.166"/><text fill="#000000" font-family="sans-serif" font-size="14" font-weight="bold" lengthAdjust="spacing" textLength="41" x="432.255" y="490.21">struct</text><!--MD5=[1346839f4d9afb2d0f5d9392cd5481da]
cluster scheduler--><rect fill="#FFFFFF" filter="url(#f1q07gdahnxshg)" height="109" style="stroke:#000000;stroke-width:1.5;" width="349" x="46.255" y="312.166"/><rect fill="#FFFFFF" height="10" style="stroke:#000000;stroke-width:1.5;" width="15" x="375.255" y="317.166"/><rect fill="#FFFFFF" height="2" style="stroke:#000000;stroke-width:1.5;" width="4" x="373.255" y="319.166"/><rect fill="#FFFFFF" height="2" style="stroke:#000000;stroke-width:1.5;" width="4" x="373.255" y="323.166"/><text fill="#000000" font-family="sans-serif" font-size="14" font-weight="bold" lengthAdjust="spacing" textLength="71" x="185.255" y="341.21">scheduler</text><!--MD5=[98578ebfa92d056c583471a3aa053fad]
cluster iniparser--><rect fill="#FFFFFF" filter="url(#f1q07gdahnxshg)" height="109" style="stroke:#000000;stroke-width:1.5;" width="312" x="685.255" y="312.166"/><rect fill="#FFFFFF" height="10" style="stroke:#000000;stroke-width:1.5;" width="15" x="977.255" y="317.166"/><rect fill="#FFFFFF" height="2" style="stroke:#000000;stroke-width:1.5;" width="4" x="975.255" y="319.166"/><rect fill="#FFFFFF" height="2" style="stroke:#000000;stroke-width:1.5;" width="4" x="975.255" y="323.166"/><text fill="#000000" font-family="sans-serif" font-size="14" font-weight="bold" lengthAdjust="spacing" textLength="63" x="809.755" y="341.21">iniparser</text><!--MD5=[996457179b8d59175ec10005cfb49da9]
cluster main.c--><polygon fill="#FFFFFF" filter="url(#f1q07gdahnxshg)" points="360.255,55.166,360.255,280.166,668.255,280.166,668.255,65.166,658.255,55.166,360.255,55.166" style="stroke:#000000;stroke-width:1.5;"/><path d="M658.255,55.166 L658.255,65.166 L668.255,65.166 " fill="#FFFFFF" style="stroke:#000000;stroke-width:1.5;"/><text fill="#000000" font-family="sans-serif" font-size="14" font-weight="bold" lengthAdjust="spacing" textLength="45" x="491.755" y="73.21">main.c</text><!--MD5=[f15e25d67c2cdaaf4f11e8182302858d]
entity reportfile--><polygon fill="#FFFFFF" filter="url(#f1q07gdahnxshg)" points="72.755,507.166,72.755,546.2861,157.755,546.2861,157.755,517.166,147.755,507.166,72.755,507.166" style="stroke:#000000;stroke-width:1.5;"/><path d="M147.755,507.166 L147.755,517.166 L157.755,517.166 " fill="#FFFFFF" style="stroke:#000000;stroke-width:1.5;"/><text fill="#000000" font-family="sans-serif" font-size="14" lengthAdjust="spacing" textLength="65" x="82.755" y="533.21">report.c/.h</text><!--MD5=[695b5b654974ff5883e601154e1c3a5b]
entity timelinefile--><polygon fill="#FFFFFF" filter="url(#f1q07gdahnxshg)" points="478.755,358.166,478.755,397.2861,573.755,397.2861,573.755,368.166,563.755,358.166,478.755,358.166" style="stroke:#000000;stroke-width:1.5;"/><path d="M563.755,358.166 L563.755,368.166 L573.755,368.166 " fill="#FFFFFF" style="stroke:#000000;stroke-width:1.5;"/><text fill="#000000" font-family="sans-serif" font-size="14" lengthAdjust="spacing" textLength="75" x="488.755" y="384.21">timeline.c/.h</text><!--MD5=[f04bcface800b3498ac77214835b90cd]
entity cmd--><polygon fill="#FFFFFF" filter="url(#f1q07gdahnxshg)" points="547.755,507.166,547.755,546.2861,620.755,546.2861,620.755,517.166,610.755,507.166,547.755,507.166" style="stroke:#000000;stroke-width:1.5;"/><path d="M610.755,507.166 L610.755,517.166 L620.755,517.166 " fill="#FFFFFF" style="stroke:#000000;stroke-width:1.5;"/><text fill="#000000" font-family="sans-serif" font-size="14" lengthAdjust="spacing" textLength="53" x="557.755" y="533.21">cmd.c/.h</text><!--MD5=[a02889e114a9fc4253f8693d788f08ce]
entity cpnt--><polygon fill="#FFFFFF" filter="url(#f1q07gdahnxshg)" points="395.755,507.166,395.755,546.2861,512.755,546.2861,512.755,517.166,502.755,507.166,395.755,507.166" style="stroke:#000000;stroke-width:1.5;"/><path d="M502.755,507.166 L502.755,517.166 L512.755,517.166 " fill="#FFFFFF" style="stroke:#000000;stroke-width:1.5;"/><text fill="#000000" font-family="sans-serif" font-size="14" lengthAdjust="spacing" textLength="97" x="405.755" y="533.21">component.c/.h</text><!--MD5=[e2d46f20eeb41aa7cb5c089073c1ecdf]
entity request--><polygon fill="#FFFFFF" filter="url(#f1q07gdahnxshg)" points="265.755,507.166,265.755,546.2861,360.755,546.2861,360.755,517.166,350.755,507.166,265.755,507.166" style="stroke:#000000;stroke-width:1.5;"/><path d="M350.755,507.166 L350.755,517.166 L360.755,517.166 " fill="#FFFFFF" style="stroke:#000000;stroke-width:1.5;"/><text fill="#000000" font-family="sans-serif" font-size="14" lengthAdjust="spacing" textLength="75" x="275.755" y="533.21">request.c/.h</text><!--MD5=[1a31f2fd85b0e906b2a2a1d1c48bb358]
entity fcfs.c/.h--><polygon fill="#FFFFFF" filter="url(#f1q07gdahnxshg)" points="301.755,358.166,301.755,397.2861,370.755,397.2861,370.755,368.166,360.755,358.166,301.755,358.166" style="stroke:#000000;stroke-width:1.5;"/><path d="M360.755,358.166 L360.755,368.166 L370.755,368.166 " fill="#FFFFFF" style="stroke:#000000;stroke-width:1.5;"/><text fill="#000000" font-family="sans-serif" font-size="14" lengthAdjust="spacing" textLength="49" x="311.755" y="384.21">fcfs.c/.h</text><!--MD5=[3ac2080d05e7891db9ce23200a2e1887]
entity opti.c/.h--><polygon fill="#FFFFFF" filter="url(#f1q07gdahnxshg)" points="196.255,358.166,196.255,397.2861,266.255,397.2861,266.255,368.166,256.255,358.166,196.255,358.166" style="stroke:#000000;stroke-width:1.5;"/><path d="M256.255,358.166 L256.255,368.166 L266.255,368.166 " fill="#FFFFFF" style="stroke:#000000;stroke-width:1.5;"/><text fill="#000000" font-family="sans-serif" font-size="14" lengthAdjust="spacing" textLength="50" x="206.255" y="384.21">opti.c/.h</text><!--MD5=[12c954e0b2e363aca2313e32cac602c5]
entity prio.c/.h--><polygon fill="#FFFFFF" filter="url(#f1q07gdahnxshg)" points="89.755,358.166,89.755,397.2861,160.755,397.2861,160.755,368.166,150.755,358.166,89.755,358.166" style="stroke:#000000;stroke-width:1.5;"/><path d="M150.755,358.166 L150.755,368.166 L160.755,368.166 " fill="#FFFFFF" style="stroke:#000000;stroke-width:1.5;"/><text fill="#000000" font-family="sans-serif" font-size="14" lengthAdjust="spacing" textLength="51" x="99.755" y="384.21">prio.c/.h</text><!--MD5=[78cb633c2b91addadd270afcd32fbc6d]
entity iniparserfile--><polygon fill="#FFFFFF" filter="url(#f1q07gdahnxshg)" points="871.255,358.166,871.255,397.2861,973.255,397.2861,973.255,368.166,963.255,358.166,871.255,358.166" style="stroke:#000000;stroke-width:1.5;"/><path d="M963.255,358.166 L963.255,368.166 L973.255,368.166 " fill="#FFFFFF" style="stroke:#000000;stroke-width:1.5;"/><text fill="#000000" font-family="sans-serif" font-size="14" lengthAdjust="spacing" textLength="82" x="881.255" y="384.21">iniparser.c/.h</text><!--MD5=[68de362158ffd3ffb90c73f5c4dd7a1e]
entity dictonary--><polygon fill="#FFFFFF" filter="url(#f1q07gdahnxshg)" points="728.255,358.166,728.255,397.2861,836.255,397.2861,836.255,368.166,826.255,358.166,728.255,358.166" style="stroke:#000000;stroke-width:1.5;"/><path d="M826.255,358.166 L826.255,368.166 L836.255,368.166 " fill="#FFFFFF" style="stroke:#000000;stroke-width:1.5;"/><text fill="#000000" font-family="sans-serif" font-size="14" lengthAdjust="spacing" textLength="88" x="738.255" y="384.21">dictionary.c/.h</text><!--MD5=[4520fda4e10d4d791ce48fe025810cd4]
class main--><rect codeLine="47" fill="#FEFECE" filter="url(#f1q07gdahnxshg)" height="163.938" id="main" style="stroke:#A80036;stroke-width:1.5;" width="117" x="384.755" y="97.166"/><ellipse cx="414.605" cy="118.5547" fill="#DA70D6" rx="11" ry="11" style="stroke:#A80036;stroke-width:1.0;"/><path d="M417.73,123.0078 Q417.73,123.1172 417.7769,123.1641 Q417.8394,123.1953 417.98,123.1953 L418.5894,123.1953 L418.5894,124.2891 L415.0581,124.2891 L415.0581,123.1953 L415.73,123.1953 Q415.9175,123.1953 415.9488,123.1641 Q415.98,123.1328 415.98,123.0078 L416.1988,114.4453 L416.3238,114.4766 L414.1988,124.2891 L413.2613,124.2891 L411.3394,114.6797 L411.48,114.6484 L411.6831,123.0078 Q411.6831,123.1016 411.7456,123.1484 Q411.8081,123.1953 411.9488,123.1953 L412.48,123.1953 L412.48,124.2891 L409.8081,124.2891 L409.8081,123.1953 L410.355,123.1953 Q410.5425,123.1953 410.5738,123.1641 Q410.605,123.1328 410.605,123.0078 L410.605,113.5234 Q410.605,113.3984 410.5738,113.3672 Q410.5425,113.3359 410.355,113.3359 L409.7456,113.3359 L409.7456,112.2422 L412.2925,112.2422 L414.0738,121.3203 L413.9331,121.3203 L415.8394,112.2422 L418.5894,112.2422 L418.5894,113.3359 L417.98,113.3359 Q417.8394,113.3359 417.7769,113.3828 Q417.73,113.4141 417.73,113.5234 L417.73,123.0078 Z " fill="#000000"/><text fill="#000000" font-family="sans-serif" font-size="12" font-style="italic" lengthAdjust="spacing" textLength="56" x="429.905" y="115.918">«module»</text><text fill="#000000" font-family="sans-serif" font-size="12" lengthAdjust="spacing" textLength="28" x="443.905" y="132.3066">main</text><line style="stroke:#A80036;stroke-width:1.5;" x1="385.755" x2="500.755" y1="139.9434" y2="139.9434"/><ellipse cx="395.755" cy="150.9434" rx="3" ry="3" style="stroke:#038048;stroke-width:1.0;fill:none;"/><text fill="#000000" font-family="sans-serif" font-size="11" lengthAdjust="spacing" textLength="91" x="404.755" y="156.5493">int n_components[]</text><ellipse cx="395.755" cy="165.9663" rx="3" ry="3" style="stroke:#038048;stroke-width:1.0;fill:none;"/><text fill="#000000" font-family="sans-serif" font-size="11" lengthAdjust="spacing" textLength="75" x="404.755" y="171.5723">tenant tenants[]</text><ellipse cx="395.755" cy="180.9893" rx="3" ry="3" style="stroke:#038048;stroke-width:1.0;fill:none;"/><text fill="#000000" font-family="sans-serif" font-size="11" lengthAdjust="spacing" textLength="63" x="404.755" y="186.5952">room rooms[]</text><ellipse cx="395.755" cy="196.0122" rx="3" ry="3" style="stroke:#038048;stroke-width:1.0;fill:none;"/><text fill="#000000" font-family="sans-serif" font-size="11" lengthAdjust="spacing" textLength="79" x="404.755" y="201.6182">device devices[]</text><line style="stroke:#A80036;stroke-width:1.5;" x1="385.755" x2="500.755" y1="208.0352" y2="208.0352"/><rect fill="#F24D5C" height="6" style="stroke:#C82930;stroke-width:1.0;" width="6" x="392.755" y="216.0352"/><text fill="#000000" font-family="sans-serif" font-size="11" lengthAdjust="spacing" textLength="50" x="404.755" y="224.6411">run_cmd()</text><ellipse cx="395.755" cy="234.0581" fill="#84BE84" rx="3" ry="3" style="stroke:#038048;stroke-width:1.0;"/><text fill="#000000" font-family="sans-serif" font-size="11" lengthAdjust="spacing" textLength="21" x="404.755" y="239.6641">init()</text><ellipse cx="395.755" cy="249.0811" fill="#84BE84" rx="3" ry="3" style="stroke:#038048;stroke-width:1.0;"/><text fill="#000000" font-family="sans-serif" font-size="11" lengthAdjust="spacing" textLength="30" x="404.755" y="254.687">main()</text><!--MD5=[e341795506030c69b48ace30360ef6ac]
class ini_init--><rect codeLine="57" fill="#FEFECE" filter="url(#f1q07gdahnxshg)" height="73.8003" id="ini_init" style="stroke:#A80036;stroke-width:1.5;" width="91" x="552.755" y="142.166"/><ellipse cx="570.905" cy="163.5547" fill="#DA70D6" rx="11" ry="11" style="stroke:#A80036;stroke-width:1.0;"/><path d="M574.03,168.0078 Q574.03,168.1172 574.0769,168.1641 Q574.1394,168.1953 574.28,168.1953 L574.8894,168.1953 L574.8894,169.2891 L571.3581,169.2891 L571.3581,168.1953 L572.03,168.1953 Q572.2175,168.1953 572.2488,168.1641 Q572.28,168.1328 572.28,168.0078 L572.4988,159.4453 L572.6238,159.4766 L570.4988,169.2891 L569.5613,169.2891 L567.6394,159.6797 L567.78,159.6484 L567.9831,168.0078 Q567.9831,168.1016 568.0456,168.1484 Q568.1081,168.1953 568.2488,168.1953 L568.78,168.1953 L568.78,169.2891 L566.1081,169.2891 L566.1081,168.1953 L566.655,168.1953 Q566.8425,168.1953 566.8738,168.1641 Q566.905,168.1328 566.905,168.0078 L566.905,158.5234 Q566.905,158.3984 566.8738,158.3672 Q566.8425,158.3359 566.655,158.3359 L566.0456,158.3359 L566.0456,157.2422 L568.5925,157.2422 L570.3738,166.3203 L570.2331,166.3203 L572.1394,157.2422 L574.8894,157.2422 L574.8894,158.3359 L574.28,158.3359 Q574.1394,158.3359 574.0769,158.3828 Q574.03,158.4141 574.03,158.5234 L574.03,168.0078 Z " fill="#000000"/><text fill="#000000" font-family="sans-serif" font-size="12" font-style="italic" lengthAdjust="spacing" textLength="56" x="583.605" y="160.918">«module»</text><text fill="#000000" font-family="sans-serif" font-size="12" lengthAdjust="spacing" textLength="36" x="593.605" y="177.3066">ini_init</text><line style="stroke:#A80036;stroke-width:1.5;" x1="553.755" x2="642.755" y1="184.9434" y2="184.9434"/><line style="stroke:#A80036;stroke-width:1.5;" x1="553.755" x2="642.755" y1="192.9434" y2="192.9434"/><rect fill="#F24D5C" height="6" style="stroke:#C82930;stroke-width:1.0;" width="6" x="560.755" y="200.9434"/><text fill="#000000" font-family="sans-serif" font-size="11" lengthAdjust="spacing" textLength="65" x="572.755" y="209.5493">init_from_ini()</text><!--MD5=[0775db230735f8c7202f50426af9bc08]
link main to ini_init--><path codeLine="61" d="M503.255,234.666 C527.565,243.166 551.065,233.416 568.495,219.416 " fill="none" id="main-to-ini_init" style="stroke:#A80036;stroke-width:1.0;"/><polygon fill="#A80036" points="568.495,219.416,558.9733,221.9334,564.5968,222.5471,563.9831,228.1706,568.495,219.416" style="stroke:#A80036;stroke-width:1.0;"/><!--MD5=[f1dd6eff3821d167407a12494ea12193]
link ini_init to main--><path codeLine="62" d="M552.255,204.666 C519.845,204.666 535.665,150.666 503.255,150.666 " fill="none" id="ini_init-to-main" style="stroke:#A80036;stroke-width:1.0;"/><polygon fill="#A80036" points="503.255,150.666,512.255,154.666,508.255,150.666,512.255,146.666,503.255,150.666" style="stroke:#A80036;stroke-width:1.0;"/><!--MD5=[f1dd6eff3821d167407a12494ea12193]
link ini_init to main--><path codeLine="63" d="M552.255,204.666 C524.425,204.666 531.085,165.666 503.255,165.666 " fill="none" id="ini_init-to-main-1" style="stroke:#A80036;stroke-width:1.0;"/><polygon fill="#A80036" points="503.255,165.666,512.255,169.666,508.255,165.666,512.255,161.666,503.255,165.666" style="stroke:#A80036;stroke-width:1.0;"/><!--MD5=[f1dd6eff3821d167407a12494ea12193]
link ini_init to main--><path codeLine="64" d="M552.255,204.666 C528.195,204.666 527.315,181.666 503.255,181.666 " fill="none" id="ini_init-to-main-2" style="stroke:#A80036;stroke-width:1.0;"/><polygon fill="#A80036" points="503.255,181.666,512.255,185.666,508.255,181.666,512.255,177.666,503.255,181.666" style="stroke:#A80036;stroke-width:1.0;"/><!--MD5=[f1dd6eff3821d167407a12494ea12193]
link ini_init to main--><path codeLine="65" d="M552.255,204.666 C530.185,204.666 525.325,196.666 503.255,196.666 " fill="none" id="ini_init-to-main-3" style="stroke:#A80036;stroke-width:1.0;"/><polygon fill="#A80036" points="503.255,196.666,512.255,200.666,508.255,196.666,512.255,192.666,503.255,196.666" style="stroke:#A80036;stroke-width:1.0;"/><!--MD5=[5bfc5376c6b9d6ddcf192eefce5f6514]
link main to struct--><path codeLine="68" d="M497.265,264.326 C506.265,273.576 516.295,281.906 527.255,288.166 C551.765,302.166 568.595,278.076 590.255,296.166 C630.35,329.651 646.965,385.771 653.5,434.1323 C654.3169,440.1774 654.9763,446.1013 655.5043,451.8447 C655.7683,454.7163 655.9995,457.5429 656.2011,460.3168 " fill="none" id="main-to-struct" style="stroke:#A80036;stroke-width:1.0;"/><polygon fill="#A80036" points="656.2011,460.3168,659.5382,451.0505,655.8387,455.33,651.5592,451.6305,656.2011,460.3168" style="stroke:#A80036;stroke-width:1.0;"/><!--MD5=[d166c14cdac7b0eb71a7d96417ece8d0]
link main to timeline--><path codeLine="69" d="M443.255,264.356 C443.255,277.496 443.255,290.9704 443.255,303.8188 C443.255,305.4249 443.255,307.0212 443.255,308.6058 C443.255,309.3981 443.255,310.1875 443.255,310.9737 C443.255,311.3669 443.255,311.7592 443.255,312.1507 " fill="none" id="main-to-timeline" style="stroke:#A80036;stroke-width:1.0;"/><polygon fill="#A80036" points="443.255,312.1507,447.255,303.1507,443.255,307.1507,439.255,303.1507,443.255,312.1507" style="stroke:#A80036;stroke-width:1.0;"/><!--MD5=[59b933b4105d2deac3bbbdcdce8110aa]
link main to scheduler--><path codeLine="71" d="M384.255,219.666 C313.085,219.666 123.345,245.606 73.255,296.166 C70.1225,299.3285 67.47,302.9055 65.2272,306.7503 C64.6665,307.7115 64.1314,308.6895 63.6208,309.6818 C63.3655,310.178 63.1163,310.6778 62.8732,311.1809 C62.7516,311.4325 62.6315,311.6849 62.5129,311.9381 " fill="none" id="main-to-scheduler" style="stroke:#A80036;stroke-width:1.0;"/><polygon fill="#A80036" points="62.5129,311.9381,69.9532,305.485,64.634,307.4103,62.7087,302.0912,62.5129,311.9381" style="stroke:#A80036;stroke-width:1.0;"/><!--MD5=[c010438b7e93f2ad2a4353b76da0211f]
link main to report--><path codeLine="72" d="M384.255,219.666 C305.505,219.666 87.695,234.876 38.255,296.166 C6.735,335.241 6,391.4485 13.3813,438.4573 C17.0719,461.9616 22.7916,483.1663 27.7067,498.7799 C28.0139,499.7558 28.318,500.7098 28.6182,501.6411 C28.7683,502.1068 28.9175,502.5669 29.0656,503.0211 " fill="none" id="main-to-report" style="stroke:#A80036;stroke-width:1.0;"/><polygon fill="#A80036" points="29.0656,503.0211,30.0787,493.2245,27.5157,498.2674,22.4728,495.7043,29.0656,503.0211" style="stroke:#A80036;stroke-width:1.0;"/><!--MD5=[78bd0e4f5141a6ce8ee1e242d91c7786]
link ini_init to iniparser--><path codeLine="74" d="M624.115,219.286 C637.795,241.336 654.205,269.616 666.255,296.166 C673.81,312.811 680.38,332.2185 685.1475,347.8073 " fill="none" id="ini_init-to-iniparser" style="stroke:#A80036;stroke-width:1.0;"/><polygon fill="#A80036" points="685.1475,347.8073,686.3405,338.0309,683.6852,343.0259,678.6903,340.3706,685.1475,347.8073" style="stroke:#A80036;stroke-width:1.0;"/><!--MD5=[893dce3b585bae4bfd20f22f2b1fab40]
link timelinefile to request--><path d="M515.455,397.436 C506.545,410.996 492.575,428.416 475.255,437.166 C436.645,456.676 416.485,424.926 378.255,445.166 C354.395,457.796 336.155,483.336 325.155,502.276 " fill="none" id="timelinefile-to-request" style="stroke:#A80036;stroke-width:1.0;"/><polygon fill="#A80036" points="322.515,506.936,330.4283,501.0726,324.9772,502.5843,323.4655,497.1331,322.515,506.936" style="stroke:#A80036;stroke-width:1.0;"/><!--MD5=[edd87a0b7a0c10bd0f5eddb3bf20433a]
link scheduler to report--><path d="M49.3187,421.3512 C49.2596,421.8616 49.2003,422.3745 49.1407,422.8896 C49.0216,423.9199 48.9013,424.9594 48.7801,426.007 C47.8107,434.388 46.7809,443.291 45.7513,452.1935 C45.4938,454.4191 45.2364,456.6447 44.9799,458.8621 C44.9158,459.4165 44.8518,459.9703 44.7878,460.5235 C44.7718,460.6618 44.7558,460.8001 44.7398,460.9383 " fill="none" id="scheduler-to-report" style="stroke:#A80036;stroke-width:1.0;"/><polygon fill="#A80036" points="44.7398,460.9383,49.7474,452.4575,45.3143,455.9714,41.8004,451.5383,44.7398,460.9383" style="stroke:#A80036;stroke-width:1.0;"/><text fill="#888888" font-family="sans-serif" font-size="10" lengthAdjust="spacing" textLength="493" x="505.255" y="594.626">RBM(Room Booking Manager) proposed by Group G06: MAN Furui, WANG Meng, WU Junyu, XING Shiji.</text><text fill="#888888" font-family="sans-serif" font-size="10" lengthAdjust="spacing" textLength="442" x="556.255" y="608.2832">COMP2432 Operating Systems, Year 2020-21 Spring, The Hong Kong Polytechnic University.</text><!--MD5=[6ddff645ec017698b541586ff00aba29]
@startuml
title __Room Booking Manager Class Diagram__\n

' skinparam BackgroundColor transparent

component report {
    file reportfile as "report.c/.h" {
        
    }
}
component timeline {
    file timelinefile as "timeline.c/.h" {

    }
}

component struct {
    file cmd as "cmd.c/.h" {
        
    }
    file cpnt as "component.c/.h" {

    }
    file request as "request.c/.h" {

    }
}
component scheduler {
    file fcfs.c/.h {

    }
    file opti.c/.h {

    }
    file prio.c/.h {

    }
}
component iniparser{
    file iniparserfile as "iniparser.c/.h" {

    }
    file dictonary as "dictionary.c/.h" {

    }
}
file main.c {
    class main <<(M, orchid) module>> {
        +int n_components[]
        +tenant tenants[]
        +room rooms[]
        +device devices[]

        -run_cmd()
        +init()
        +main()
    }
    class ini_init <<(M, orchid) module>> {
        -init_from_ini()
    }

    main::init -ri-> ini_init
    ini_init::init_from_ini -ri-> main::n_components
    ini_init::init_from_ini -ri-> main::tenants
    ini_init::init_from_ini -ri-> main::rooms
    ini_init::init_from_ini -ri-> main::devices
}

main - -> struct
main - -> timeline

main::run_cmd - -> scheduler
main::run_cmd - -> report

ini_init - -> iniparser
timelinefile - -> request
scheduler - -> report

right footer
RBM(Room Booking Manager) proposed by Group G06: MAN Furui, WANG Meng, WU Junyu, XING Shiji.
COMP2432 Operating Systems, Year 2020-21 Spring, The Hong Kong Polytechnic University.
endfooter

@enduml

@startuml
title __Room Booking Manager Class Diagram__\n


component report {
    file reportfile as "report.c/.h" {
        
    }
}
component timeline {
    file timelinefile as "timeline.c/.h" {

    }
}

component struct {
    file cmd as "cmd.c/.h" {
        
    }
    file cpnt as "component.c/.h" {

    }
    file request as "request.c/.h" {

    }
}
component scheduler {
    file fcfs.c/.h {

    }
    file opti.c/.h {

    }
    file prio.c/.h {

    }
}
component iniparser{
    file iniparserfile as "iniparser.c/.h" {

    }
    file dictonary as "dictionary.c/.h" {

    }
}
file main.c {
    class main <<(M, orchid) module>> {
        +int n_components[]
        +tenant tenants[]
        +room rooms[]
        +device devices[]

        -run_cmd()
        +init()
        +main()
    }
    class ini_init <<(M, orchid) module>> {
        -init_from_ini()
    }

    main::init -ri-> ini_init
    ini_init::init_from_ini -ri-> main::n_components
    ini_init::init_from_ini -ri-> main::tenants
    ini_init::init_from_ini -ri-> main::rooms
    ini_init::init_from_ini -ri-> main::devices
}

main - -> struct
main - -> timeline

main::run_cmd - -> scheduler
main::run_cmd - -> report

ini_init - -> iniparser
timelinefile - -> request
scheduler - -> report

right footer
RBM(Room Booking Manager) proposed by Group G06: MAN Furui, WANG Meng, WU Junyu, XING Shiji.
COMP2432 Operating Systems, Year 2020-21 Spring, The Hong Kong Polytechnic University.
endfooter

@enduml

PlantUML version 1.2021.4(Sun Apr 04 16:49:39 CST 2021)
(GPL source distribution)
Java Runtime: Java(TM) SE Runtime Environment
JVM: Java HotSpot(TM) 64-Bit Server VM
Default Encoding: GBK
Language: zh
Country: CN
--></g></svg>