<?xml version="1.0" encoding="UTF-8" standalone="no"?><svg xmlns="http://www.w3.org/2000/svg" xmlns:xlink="http://www.w3.org/1999/xlink" contentScriptType="application/ecmascript" contentStyleType="text/css" height="157px" preserveAspectRatio="none" style="width:450px;height:157px;" version="1.1" viewBox="0 0 450 157" width="450px" zoomAndPan="magnify"><defs/><g><rect fill="none" height="48.2402" style="stroke:none;stroke-width:1.0;" width="182" x="132.5" y="5"/><text fill="#000000" font-family="sans-serif" font-size="14" font-weight="bold" lengthAdjust="spacing" text-decoration="underline" textLength="172" x="137.5" y="26.0439">PRIO Scheduling Sample</text><text fill="#000000" font-family="sans-serif" font-size="14" font-weight="bold" lengthAdjust="spacing" textLength="0" x="225.5" y="45.1641"/><line style="stroke:#C0C0C0;stroke-width:1.0;" x1="0" x2="0" y1="59.2402" y2="139.2402"/><line style="stroke:#C0C0C0;stroke-width:1.0;" x1="16" x2="16" y1="59.2402" y2="139.2402"/><line style="stroke:#C0C0C0;stroke-width:1.0;" x1="32" x2="32" y1="59.2402" y2="139.2402"/><line style="stroke:#C0C0C0;stroke-width:1.0;" x1="48" x2="48" y1="59.2402" y2="139.2402"/><line style="stroke:#C0C0C0;stroke-width:1.0;" x1="64" x2="64" y1="59.2402" y2="139.2402"/><line style="stroke:#C0C0C0;stroke-width:1.0;" x1="80" x2="80" y1="59.2402" y2="139.2402"/><line style="stroke:#C0C0C0;stroke-width:1.0;" x1="96" x2="96" y1="59.2402" y2="139.2402"/><line style="stroke:#C0C0C0;stroke-width:1.0;" x1="112" x2="112" y1="59.2402" y2="139.2402"/><line style="stroke:#C0C0C0;stroke-width:1.0;" x1="128" x2="128" y1="59.2402" y2="139.2402"/><line style="stroke:#C0C0C0;stroke-width:1.0;" x1="144" x2="144" y1="59.2402" y2="139.2402"/><line style="stroke:#C0C0C0;stroke-width:1.0;" x1="160" x2="160" y1="59.2402" y2="139.2402"/><line style="stroke:#C0C0C0;stroke-width:1.0;" x1="176" x2="176" y1="59.2402" y2="139.2402"/><line style="stroke:#C0C0C0;stroke-width:1.0;" x1="192" x2="192" y1="59.2402" y2="139.2402"/><line style="stroke:#C0C0C0;stroke-width:1.0;" x1="208" x2="208" y1="59.2402" y2="139.2402"/><line style="stroke:#C0C0C0;stroke-width:1.0;" x1="224" x2="224" y1="59.2402" y2="139.2402"/><line style="stroke:#C0C0C0;stroke-width:1.0;" x1="240" x2="240" y1="59.2402" y2="139.2402"/><line style="stroke:#C0C0C0;stroke-width:1.0;" x1="256" x2="256" y1="59.2402" y2="139.2402"/><line style="stroke:#C0C0C0;stroke-width:1.0;" x1="272" x2="272" y1="59.2402" y2="139.2402"/><line style="stroke:#C0C0C0;stroke-width:1.0;" x1="288" x2="288" y1="59.2402" y2="139.2402"/><line style="stroke:#C0C0C0;stroke-width:1.0;" x1="304" x2="304" y1="59.2402" y2="139.2402"/><line style="stroke:#C0C0C0;stroke-width:1.0;" x1="320" x2="320" y1="59.2402" y2="139.2402"/><line style="stroke:#C0C0C0;stroke-width:1.0;" x1="336" x2="336" y1="59.2402" y2="139.2402"/><line style="stroke:#C0C0C0;stroke-width:1.0;" x1="352" x2="352" y1="59.2402" y2="139.2402"/><line style="stroke:#C0C0C0;stroke-width:1.0;" x1="368" x2="368" y1="59.2402" y2="139.2402"/><line style="stroke:#C0C0C0;stroke-width:1.0;" x1="384" x2="384" y1="59.2402" y2="139.2402"/><line style="stroke:#C0C0C0;stroke-width:1.0;" x1="400" x2="400" y1="59.2402" y2="139.2402"/><line style="stroke:#C0C0C0;stroke-width:1.0;" x1="416" x2="416" y1="59.2402" y2="139.2402"/><line style="stroke:#C0C0C0;stroke-width:1.0;" x1="432" x2="432" y1="59.2402" y2="139.2402"/><line style="stroke:#C0C0C0;stroke-width:1.0;" x1="448" x2="448" y1="59.2402" y2="139.2402"/><text fill="#000000" font-family="Serif" font-size="10" lengthAdjust="spacing" textLength="5" x="5.5" y="70.7002">1</text><text fill="#000000" font-family="Serif" font-size="10" lengthAdjust="spacing" textLength="5" x="21.5" y="70.7002">2</text><text fill="#000000" font-family="Serif" font-size="10" lengthAdjust="spacing" textLength="5" x="37.5" y="70.7002">3</text><text fill="#000000" font-family="Serif" font-size="10" lengthAdjust="spacing" textLength="5" x="53.5" y="70.7002">4</text><text fill="#000000" font-family="Serif" font-size="10" lengthAdjust="spacing" textLength="5" x="69.5" y="70.7002">5</text><text fill="#000000" font-family="Serif" font-size="10" lengthAdjust="spacing" textLength="5" x="85.5" y="70.7002">6</text><text fill="#000000" font-family="Serif" font-size="10" lengthAdjust="spacing" textLength="5" x="101.5" y="70.7002">7</text><text fill="#000000" font-family="Serif" font-size="10" lengthAdjust="spacing" textLength="5" x="117.5" y="70.7002">8</text><text fill="#000000" font-family="Serif" font-size="10" lengthAdjust="spacing" textLength="5" x="133.5" y="70.7002">9</text><text fill="#000000" font-family="Serif" font-size="10" lengthAdjust="spacing" textLength="10" x="147" y="70.7002">10</text><text fill="#000000" font-family="Serif" font-size="10" lengthAdjust="spacing" textLength="10" x="163" y="70.7002">11</text><text fill="#000000" font-family="Serif" font-size="10" lengthAdjust="spacing" textLength="10" x="179" y="70.7002">12</text><text fill="#000000" font-family="Serif" font-size="10" lengthAdjust="spacing" textLength="10" x="195" y="70.7002">13</text><text fill="#000000" font-family="Serif" font-size="10" lengthAdjust="spacing" textLength="10" x="211" y="70.7002">14</text><text fill="#000000" font-family="Serif" font-size="10" lengthAdjust="spacing" textLength="10" x="227" y="70.7002">15</text><text fill="#000000" font-family="Serif" font-size="10" lengthAdjust="spacing" textLength="10" x="243" y="70.7002">16</text><text fill="#000000" font-family="Serif" font-size="10" lengthAdjust="spacing" textLength="10" x="259" y="70.7002">17</text><text fill="#000000" font-family="Serif" font-size="10" lengthAdjust="spacing" textLength="10" x="275" y="70.7002">18</text><text fill="#000000" font-family="Serif" font-size="10" lengthAdjust="spacing" textLength="10" x="291" y="70.7002">19</text><text fill="#000000" font-family="Serif" font-size="10" lengthAdjust="spacing" textLength="10" x="307" y="70.7002">20</text><text fill="#000000" font-family="Serif" font-size="10" lengthAdjust="spacing" textLength="10" x="323" y="70.7002">21</text><text fill="#000000" font-family="Serif" font-size="10" lengthAdjust="spacing" textLength="10" x="339" y="70.7002">22</text><text fill="#000000" font-family="Serif" font-size="10" lengthAdjust="spacing" textLength="10" x="355" y="70.7002">23</text><text fill="#000000" font-family="Serif" font-size="10" lengthAdjust="spacing" textLength="10" x="371" y="70.7002">24</text><text fill="#000000" font-family="Serif" font-size="10" lengthAdjust="spacing" textLength="10" x="387" y="70.7002">25</text><text fill="#000000" font-family="Serif" font-size="10" lengthAdjust="spacing" textLength="10" x="403" y="70.7002">26</text><text fill="#000000" font-family="Serif" font-size="10" lengthAdjust="spacing" textLength="10" x="419" y="70.7002">27</text><text fill="#000000" font-family="Serif" font-size="10" lengthAdjust="spacing" textLength="10" x="435" y="70.7002">28</text><line style="stroke:#C0C0C0;stroke-width:1.0;" x1="0" x2="448" y1="59.2402" y2="59.2402"/><line style="stroke:#C0C0C0;stroke-width:1.0;" x1="0" x2="448" y1="72.2402" y2="72.2402"/><line style="stroke:#A80036;stroke-width:1.5;" x1="104" x2="104" y1="91.2402" y2="99.2402"/><line style="stroke:#A80036;stroke-width:1.5;" x1="104" x2="144" y1="99.2402" y2="99.2402"/><polygon fill="#A80036" points="140,95.2402,140,99.2402,140,103.2402,144,99.2402" style="stroke:#A80036;stroke-width:1.5;"/><line style="stroke:#A80036;stroke-width:1.5;" x1="272" x2="278" y1="99.2402" y2="99.2402"/><line style="stroke:#A80036;stroke-width:1.5;" x1="278" x2="278" y1="99.2402" y2="107.2402"/><line style="stroke:#A80036;stroke-width:1.5;" x1="278" x2="168" y1="107.2402" y2="107.2402"/><line style="stroke:#A80036;stroke-width:1.5;" x1="168" x2="168" y1="107.2402" y2="115.2402"/><line style="stroke:#A80036;stroke-width:1.5;" x1="168" x2="176" y1="115.2402" y2="115.2402"/><polygon fill="#A80036" points="172,111.2402,172,115.2402,172,119.2402,176,115.2402" style="stroke:#A80036;stroke-width:1.5;"/><line style="stroke:#A80036;stroke-width:1.5;" x1="336" x2="342" y1="115.2402" y2="115.2402"/><line style="stroke:#A80036;stroke-width:1.5;" x1="342" x2="342" y1="115.2402" y2="123.2402"/><line style="stroke:#A80036;stroke-width:1.5;" x1="342" x2="312" y1="123.2402" y2="123.2402"/><line style="stroke:#A80036;stroke-width:1.5;" x1="312" x2="312" y1="123.2402" y2="131.2402"/><line style="stroke:#A80036;stroke-width:1.5;" x1="312" x2="320" y1="131.2402" y2="131.2402"/><polygon fill="#A80036" points="316,127.2402,316,131.2402,316,135.2402,320,131.2402" style="stroke:#A80036;stroke-width:1.5;"/><rect fill="#C9FFC9" height="12" rx="4" ry="4" style="stroke:#C9FFC9;stroke-width:1.0;" width="108" x="2" y="77.2402"/><rect fill="#FA8072" height="12" rx="4" ry="4" style="stroke:#FA8072;stroke-width:1.0;" width="124" x="146" y="93.2402"/><rect fill="#C9FFC9" height="12" rx="4" ry="4" style="stroke:#C9FFC9;stroke-width:1.0;" width="156" x="178" y="109.2402"/><rect fill="#FA8072" height="12" rx="4" ry="4" style="stroke:#FA8072;stroke-width:1.0;" width="124" x="322" y="125.2402"/><text fill="#000000" font-family="sans-serif" font-size="11" lengthAdjust="spacing" textLength="92" x="6" y="87.3347">tenant_A's meeting</text><text fill="#000000" font-family="sans-serif" font-size="11" lengthAdjust="spacing" textLength="114" x="150" y="103.3347">tenant_C's presentation</text><text fill="#000000" font-family="sans-serif" font-size="11" lengthAdjust="spacing" textLength="110" x="182" y="119.3347">tenant_B's conference</text><text fill="#000000" font-family="sans-serif" font-size="11" lengthAdjust="spacing" textLength="90" x="326" y="135.3347">tenant_E's meeting</text><line style="stroke:#C0C0C0;stroke-width:1.0;" x1="0" x2="0" y1="139.2402" y2="155.2402"/><line style="stroke:#C0C0C0;stroke-width:1.0;" x1="16" x2="16" y1="139.2402" y2="155.2402"/><line style="stroke:#C0C0C0;stroke-width:1.0;" x1="32" x2="32" y1="139.2402" y2="155.2402"/><line style="stroke:#C0C0C0;stroke-width:1.0;" x1="48" x2="48" y1="139.2402" y2="155.2402"/><line style="stroke:#C0C0C0;stroke-width:1.0;" x1="64" x2="64" y1="139.2402" y2="155.2402"/><line style="stroke:#C0C0C0;stroke-width:1.0;" x1="80" x2="80" y1="139.2402" y2="155.2402"/><line style="stroke:#C0C0C0;stroke-width:1.0;" x1="96" x2="96" y1="139.2402" y2="155.2402"/><line style="stroke:#C0C0C0;stroke-width:1.0;" x1="112" x2="112" y1="139.2402" y2="155.2402"/><line style="stroke:#C0C0C0;stroke-width:1.0;" x1="128" x2="128" y1="139.2402" y2="155.2402"/><line style="stroke:#C0C0C0;stroke-width:1.0;" x1="144" x2="144" y1="139.2402" y2="155.2402"/><line style="stroke:#C0C0C0;stroke-width:1.0;" x1="160" x2="160" y1="139.2402" y2="155.2402"/><line style="stroke:#C0C0C0;stroke-width:1.0;" x1="176" x2="176" y1="139.2402" y2="155.2402"/><line style="stroke:#C0C0C0;stroke-width:1.0;" x1="192" x2="192" y1="139.2402" y2="155.2402"/><line style="stroke:#C0C0C0;stroke-width:1.0;" x1="208" x2="208" y1="139.2402" y2="155.2402"/><line style="stroke:#C0C0C0;stroke-width:1.0;" x1="224" x2="224" y1="139.2402" y2="155.2402"/><line style="stroke:#C0C0C0;stroke-width:1.0;" x1="240" x2="240" y1="139.2402" y2="155.2402"/><line style="stroke:#C0C0C0;stroke-width:1.0;" x1="256" x2="256" y1="139.2402" y2="155.2402"/><line style="stroke:#C0C0C0;stroke-width:1.0;" x1="272" x2="272" y1="139.2402" y2="155.2402"/><line style="stroke:#C0C0C0;stroke-width:1.0;" x1="288" x2="288" y1="139.2402" y2="155.2402"/><line style="stroke:#C0C0C0;stroke-width:1.0;" x1="304" x2="304" y1="139.2402" y2="155.2402"/><line style="stroke:#C0C0C0;stroke-width:1.0;" x1="320" x2="320" y1="139.2402" y2="155.2402"/><line style="stroke:#C0C0C0;stroke-width:1.0;" x1="336" x2="336" y1="139.2402" y2="155.2402"/><line style="stroke:#C0C0C0;stroke-width:1.0;" x1="352" x2="352" y1="139.2402" y2="155.2402"/><line style="stroke:#C0C0C0;stroke-width:1.0;" x1="368" x2="368" y1="139.2402" y2="155.2402"/><line style="stroke:#C0C0C0;stroke-width:1.0;" x1="384" x2="384" y1="139.2402" y2="155.2402"/><line style="stroke:#C0C0C0;stroke-width:1.0;" x1="400" x2="400" y1="139.2402" y2="155.2402"/><line style="stroke:#C0C0C0;stroke-width:1.0;" x1="416" x2="416" y1="139.2402" y2="155.2402"/><line style="stroke:#C0C0C0;stroke-width:1.0;" x1="432" x2="432" y1="139.2402" y2="155.2402"/><line style="stroke:#C0C0C0;stroke-width:1.0;" x1="448" x2="448" y1="139.2402" y2="155.2402"/><text fill="#000000" font-family="Serif" font-size="10" lengthAdjust="spacing" textLength="5" x="5.5" y="153.7002">1</text><text fill="#000000" font-family="Serif" font-size="10" lengthAdjust="spacing" textLength="5" x="21.5" y="153.7002">2</text><text fill="#000000" font-family="Serif" font-size="10" lengthAdjust="spacing" textLength="5" x="37.5" y="153.7002">3</text><text fill="#000000" font-family="Serif" font-size="10" lengthAdjust="spacing" textLength="5" x="53.5" y="153.7002">4</text><text fill="#000000" font-family="Serif" font-size="10" lengthAdjust="spacing" textLength="5" x="69.5" y="153.7002">5</text><text fill="#000000" font-family="Serif" font-size="10" lengthAdjust="spacing" textLength="5" x="85.5" y="153.7002">6</text><text fill="#000000" font-family="Serif" font-size="10" lengthAdjust="spacing" textLength="5" x="101.5" y="153.7002">7</text><text fill="#000000" font-family="Serif" font-size="10" lengthAdjust="spacing" textLength="5" x="117.5" y="153.7002">8</text><text fill="#000000" font-family="Serif" font-size="10" lengthAdjust="spacing" textLength="5" x="133.5" y="153.7002">9</text><text fill="#000000" font-family="Serif" font-size="10" lengthAdjust="spacing" textLength="10" x="147" y="153.7002">10</text><text fill="#000000" font-family="Serif" font-size="10" lengthAdjust="spacing" textLength="10" x="163" y="153.7002">11</text><text fill="#000000" font-family="Serif" font-size="10" lengthAdjust="spacing" textLength="10" x="179" y="153.7002">12</text><text fill="#000000" font-family="Serif" font-size="10" lengthAdjust="spacing" textLength="10" x="195" y="153.7002">13</text><text fill="#000000" font-family="Serif" font-size="10" lengthAdjust="spacing" textLength="10" x="211" y="153.7002">14</text><text fill="#000000" font-family="Serif" font-size="10" lengthAdjust="spacing" textLength="10" x="227" y="153.7002">15</text><text fill="#000000" font-family="Serif" font-size="10" lengthAdjust="spacing" textLength="10" x="243" y="153.7002">16</text><text fill="#000000" font-family="Serif" font-size="10" lengthAdjust="spacing" textLength="10" x="259" y="153.7002">17</text><text fill="#000000" font-family="Serif" font-size="10" lengthAdjust="spacing" textLength="10" x="275" y="153.7002">18</text><text fill="#000000" font-family="Serif" font-size="10" lengthAdjust="spacing" textLength="10" x="291" y="153.7002">19</text><text fill="#000000" font-family="Serif" font-size="10" lengthAdjust="spacing" textLength="10" x="307" y="153.7002">20</text><text fill="#000000" font-family="Serif" font-size="10" lengthAdjust="spacing" textLength="10" x="323" y="153.7002">21</text><text fill="#000000" font-family="Serif" font-size="10" lengthAdjust="spacing" textLength="10" x="339" y="153.7002">22</text><text fill="#000000" font-family="Serif" font-size="10" lengthAdjust="spacing" textLength="10" x="355" y="153.7002">23</text><text fill="#000000" font-family="Serif" font-size="10" lengthAdjust="spacing" textLength="10" x="371" y="153.7002">24</text><text fill="#000000" font-family="Serif" font-size="10" lengthAdjust="spacing" textLength="10" x="387" y="153.7002">25</text><text fill="#000000" font-family="Serif" font-size="10" lengthAdjust="spacing" textLength="10" x="403" y="153.7002">26</text><text fill="#000000" font-family="Serif" font-size="10" lengthAdjust="spacing" textLength="10" x="419" y="153.7002">27</text><text fill="#000000" font-family="Serif" font-size="10" lengthAdjust="spacing" textLength="10" x="435" y="153.7002">28</text><line style="stroke:#C0C0C0;stroke-width:1.0;" x1="0" x2="448" y1="142.2402" y2="142.2402"/><!--MD5=[12495e7c6bd1c3e21aadc1c208608b39]
@startgantt

title __PRIO Scheduling Sample__\n


[tenant_A's meeting] as [T1] lasts 7 days
[tenant_C's presentation] as [T2] lasts 8 days and starts 2 days after [T1]'s end
[tenant_B's conference] as [T3] lasts 10 days and starts 6 days before [T2]'s end
[tenant_E's meeting] as [T4] lasts 8 days and starts 1 days before [T3]'s end
[T1] is colored in technology
[T2] is colored in salmon
[T3] is colored in technology
[T4] is colored in salmon

@endgatt

PlantUML version 1.2021.4(Sun Apr 04 16:49:39 CST 2021)
(GPL source distribution)
Java Runtime: Java(TM) SE Runtime Environment
JVM: Java HotSpot(TM) Client VM
Default Encoding: GBK
Language: zh
Country: CN
--></g></svg>