<?xml version="1.0" encoding="UTF-8" standalone="no"?><svg xmlns="http://www.w3.org/2000/svg" xmlns:xlink="http://www.w3.org/1999/xlink" contentScriptType="application/ecmascript" contentStyleType="text/css" height="513px" preserveAspectRatio="none" style="width:501px;height:513px;" version="1.1" viewBox="0 0 501 513" width="501px" zoomAndPan="magnify"><defs><filter height="300%" id="fprfwhvco0onx" width="300%" x="-1" y="-1"><feGaussianBlur result="blurOut" stdDeviation="2.0"/><feColorMatrix in="blurOut" result="blurOut2" type="matrix" values="0 0 0 0 0 0 0 0 0 0 0 0 0 0 0 0 0 0 .4 0"/><feOffset dx="4.0" dy="4.0" in="blurOut2" result="blurOut3"/><feBlend in="SourceGraphic" in2="blurOut3" mode="normal"/></filter></defs><g><text fill="#000000" font-family="sans-serif" font-size="18" lengthAdjust="spacing" text-decoration="underline" textLength="351" x="71.5" y="32.6279">Room Booking Manager Sequence Diagram</text><text fill="#000000" font-family="sans-serif" font-size="18" lengthAdjust="spacing" textLength="0" x="249.5" y="57.2109"/><rect fill="#FFFFFF" filter="url(#fprfwhvco0onx)" height="184.772" style="stroke:#A80036;stroke-width:1.0;" width="10" x="191" y="188.0405"/><rect fill="#FFFFFF" filter="url(#fprfwhvco0onx)" height="76.5088" style="stroke:#A80036;stroke-width:1.0;" width="10" x="376" y="219.7949"/><line style="stroke:#A80036;stroke-width:1.0;stroke-dasharray:5.0,5.0;" x1="31" x2="31" y1="154.2861" y2="390.8125"/><line style="stroke:#A80036;stroke-width:1.0;stroke-dasharray:5.0,5.0;" x1="196" x2="196" y1="154.2861" y2="390.8125"/><line style="stroke:#A80036;stroke-width:1.0;stroke-dasharray:5.0,5.0;" x1="380.5" x2="380.5" y1="154.2861" y2="390.8125"/><text fill="#000000" font-family="sans-serif" font-size="14" lengthAdjust="spacing" textLength="46" x="5" y="151.21">Entrant</text><ellipse cx="31" cy="78.166" fill="#FEFECE" filter="url(#fprfwhvco0onx)" rx="8" ry="8" style="stroke:#A80036;stroke-width:2.0;"/><path d="M31,86.166 L31,113.166 M18,94.166 L44,94.166 M31,113.166 L18,128.166 M31,113.166 L44,128.166 " fill="none" filter="url(#fprfwhvco0onx)" style="stroke:#A80036;stroke-width:2.0;"/><text fill="#000000" font-family="sans-serif" font-size="14" lengthAdjust="spacing" textLength="46" x="5" y="405.8564">Entrant</text><ellipse cx="31" cy="418.9326" fill="#FEFECE" filter="url(#fprfwhvco0onx)" rx="8" ry="8" style="stroke:#A80036;stroke-width:2.0;"/><path d="M31,426.9326 L31,453.9326 M18,434.9326 L44,434.9326 M31,453.9326 L18,468.9326 M31,453.9326 L44,468.9326 " fill="none" filter="url(#fprfwhvco0onx)" style="stroke:#A80036;stroke-width:2.0;"/><rect fill="#FEFECE" filter="url(#fprfwhvco0onx)" height="33.1201" style="stroke:#A80036;stroke-width:1.5;" width="52" x="168" y="116.166"/><text fill="#000000" font-family="sans-serif" font-size="14" lengthAdjust="spacing" textLength="38" x="175" y="139.21">Ticket</text><rect fill="#FEFECE" filter="url(#fprfwhvco0onx)" height="33.1201" style="stroke:#A80036;stroke-width:1.5;" width="52" x="168" y="389.8125"/><text fill="#000000" font-family="sans-serif" font-size="14" lengthAdjust="spacing" textLength="38" x="175" y="412.8564">Ticket</text><rect fill="#FEFECE" filter="url(#fprfwhvco0onx)" height="33.1201" style="stroke:#A80036;stroke-width:1.5;" width="65" x="346.5" y="116.166"/><text fill="#000000" font-family="sans-serif" font-size="14" lengthAdjust="spacing" textLength="51" x="353.5" y="139.21">Member</text><rect fill="#FEFECE" filter="url(#fprfwhvco0onx)" height="33.1201" style="stroke:#A80036;stroke-width:1.5;" width="65" x="346.5" y="389.8125"/><text fill="#000000" font-family="sans-serif" font-size="14" lengthAdjust="spacing" textLength="51" x="353.5" y="412.8564">Member</text><rect fill="#FFFFFF" filter="url(#fprfwhvco0onx)" height="184.772" style="stroke:#A80036;stroke-width:1.0;" width="10" x="191" y="188.0405"/><rect fill="#FFFFFF" filter="url(#fprfwhvco0onx)" height="76.5088" style="stroke:#A80036;stroke-width:1.0;" width="10" x="376" y="219.7949"/><polygon fill="#A80036" points="179,184.0405,189,188.0405,179,192.0405,183,188.0405" style="stroke:#A80036;stroke-width:1.0;"/><line style="stroke:#A80036;stroke-width:1.0;" x1="31" x2="185" y1="188.0405" y2="188.0405"/><text fill="#000000" font-family="sans-serif" font-size="13" lengthAdjust="spacing" textLength="126" x="38" y="183.1841">Attend Event Request</text><polygon fill="#A80036" points="364,215.7949,374,219.7949,364,223.7949,368,219.7949" style="stroke:#A80036;stroke-width:1.0;"/><line style="stroke:#A80036;stroke-width:1.0;" x1="201" x2="370" y1="219.7949" y2="219.7949"/><text fill="#000000" font-family="sans-serif" font-size="13" lengthAdjust="spacing" textLength="141" x="208" y="214.9385">Create Member Request</text><line style="stroke:#A80036;stroke-width:1.0;" x1="386" x2="428" y1="251.5493" y2="251.5493"/><line style="stroke:#A80036;stroke-width:1.0;" x1="428" x2="428" y1="251.5493" y2="264.5493"/><line style="stroke:#A80036;stroke-width:1.0;" x1="387" x2="428" y1="264.5493" y2="264.5493"/><polygon fill="#A80036" points="397,260.5493,387,264.5493,397,268.5493,393,264.5493" style="stroke:#A80036;stroke-width:1.0;"/><text fill="#000000" font-family="sans-serif" font-size="13" lengthAdjust="spacing" textLength="89" x="393" y="246.6929">Create Member</text><polygon fill="#A80036" points="212,292.3037,202,296.3037,212,300.3037,208,296.3037" style="stroke:#A80036;stroke-width:1.0;"/><line style="stroke:#A80036;stroke-width:1.0;stroke-dasharray:2.0,2.0;" x1="206" x2="380" y1="296.3037" y2="296.3037"/><text fill="#000000" font-family="sans-serif" font-size="13" lengthAdjust="spacing" textLength="151" x="218" y="291.4473">Create Member Response</text><line style="stroke:#A80036;stroke-width:1.0;" x1="201" x2="243" y1="328.0581" y2="328.0581"/><line style="stroke:#A80036;stroke-width:1.0;" x1="243" x2="243" y1="328.0581" y2="341.0581"/><line style="stroke:#A80036;stroke-width:1.0;" x1="202" x2="243" y1="341.0581" y2="341.0581"/><polygon fill="#A80036" points="212,337.0581,202,341.0581,212,345.0581,208,341.0581" style="stroke:#A80036;stroke-width:1.0;"/><text fill="#000000" font-family="sans-serif" font-size="13" lengthAdjust="spacing" textLength="77" x="208" y="323.2017">Create Ticket</text><polygon fill="#A80036" points="42,368.8125,32,372.8125,42,376.8125,38,372.8125" style="stroke:#A80036;stroke-width:1.0;"/><line style="stroke:#A80036;stroke-width:1.0;stroke-dasharray:2.0,2.0;" x1="36" x2="195" y1="372.8125" y2="372.8125"/><text fill="#000000" font-family="sans-serif" font-size="13" lengthAdjust="spacing" textLength="136" x="48" y="367.9561">Attend Event Response</text><text fill="#888888" font-family="sans-serif" font-size="10" lengthAdjust="spacing" textLength="493" x="1" y="491.3926">RBM(Room Booking Manager) proposed by Group G06: MAN Furui, WANG Meng, WU Junyu, XING Shiji.</text><text fill="#888888" font-family="sans-serif" font-size="10" lengthAdjust="spacing" textLength="442" x="52" y="505.0498">COMP2432 Operating Systems, Year 2020-21 Spring, The Hong Kong Polytechnic University.</text><!--MD5=[e57724253ecc0c96361f28850d048b4c]
@startuml
title __Room Booking Manager Sequence Diagram__\n
actor Entrant

Entrant -> Ticket : Attend Event Request

activate Ticket
Ticket -> Member : Create Member Request

activate Member
Member -> Member : Create Member
Ticket <- - Member : Create Member Response
deactivate Member

Ticket -> Ticket : Create Ticket
Entrant <- - Ticket : Attend Event Response
deactivate Ticket

right footer
RBM(Room Booking Manager) proposed by Group G06: MAN Furui, WANG Meng, WU Junyu, XING Shiji.
COMP2432 Operating Systems, Year 2020-21 Spring, The Hong Kong Polytechnic University.
endfooter

@enduml

PlantUML version 1.2021.4(Sun Apr 04 16:49:39 CST 2021)
(GPL source distribution)
Java Runtime: Java(TM) SE Runtime Environment
JVM: Java HotSpot(TM) 64-Bit Server VM
Default Encoding: GBK
Language: zh
Country: CN
--></g></svg>