<?xml version="1.0" encoding="UTF-8" standalone="no"?><svg xmlns="http://www.w3.org/2000/svg" xmlns:xlink="http://www.w3.org/1999/xlink" contentScriptType="application/ecmascript" contentStyleType="text/css" height="614px" preserveAspectRatio="none" style="width:1048px;height:614px;background:#00000000;" version="1.1" viewBox="0 0 1048 614" width="1048px" zoomAndPan="magnify"><defs><filter height="300%" id="fnkejg8gpsxav" width="300%" x="-1" y="-1"><feGaussianBlur result="blurOut" stdDeviation="2.0"/><feColorMatrix in="blurOut" result="blurOut2" type="matrix" values="0 0 0 0 0 0 0 0 0 0 0 0 0 0 0 0 0 0 .4 0"/><feOffset dx="4.0" dy="4.0" in="blurOut2" result="blurOut3"/><feBlend in="SourceGraphic" in2="blurOut3" mode="normal"/></filter></defs><g><text fill="#000000" font-family="sans-serif" font-size="18" lengthAdjust="spacing" text-decoration="underline" textLength="326" x="360" y="30.6279">Room Booking Manager Activity Diagram</text><text fill="#000000" font-family="sans-serif" font-size="18" lengthAdjust="spacing" textLength="0" x="525.5" y="55.2109"/><ellipse cx="738.125" cy="69.166" fill="#000000" filter="url(#fnkejg8gpsxav)" rx="10" ry="10" style="stroke:none;stroke-width:1.0;"/><rect fill="#FEFECE" filter="url(#fnkejg8gpsxav)" height="36.3887" rx="12.5" ry="12.5" style="stroke:#A80036;stroke-width:1.5;" width="124" x="676.125" y="155.5547"/><text fill="#000000" font-family="sans-serif" font-size="12" lengthAdjust="spacing" textLength="104" x="686.125" y="179.3066">process command</text><polygon fill="#FEFECE" filter="url(#fnkejg8gpsxav)" points="724.125,211.9434,752.125,211.9434,764.125,223.9434,752.125,235.9434,724.125,235.9434,712.125,223.9434,724.125,211.9434" style="stroke:#A80036;stroke-width:1.5;"/><text fill="#000000" font-family="sans-serif" font-size="11" lengthAdjust="spacing" textLength="28" x="724.125" y="229.0378">valid?</text><text fill="#000000" font-family="sans-serif" font-size="11" lengthAdjust="spacing" textLength="18" x="694.125" y="221.5264">yes</text><text fill="#000000" font-family="sans-serif" font-size="11" lengthAdjust="spacing" textLength="12" x="764.125" y="221.5264">no</text><rect fill="#C2F0FF" filter="url(#fnkejg8gpsxav)" height="251.5088" style="stroke:#000000;stroke-width:2.0;" width="815" x="11" y="245.9434"/><path d="M82,245.9434 L82,258.0635 L72,268.0635 L11,268.0635 " fill="none" style="stroke:#000000;stroke-width:2.0;"/><text fill="#000000" font-family="sans-serif" font-size="14" lengthAdjust="spacing" textLength="61" x="14" y="262.9873">Execution</text><polygon fill="#FEFECE" filter="url(#fnkejg8gpsxav)" points="519.75,285.0635,552.75,285.0635,564.75,297.0635,552.75,309.0635,519.75,309.0635,507.75,297.0635,519.75,285.0635" style="stroke:#A80036;stroke-width:1.5;"/><text fill="#000000" font-family="sans-serif" font-size="11" lengthAdjust="spacing" textLength="33" x="519.75" y="302.158">switch</text><text fill="#000000" font-family="sans-serif" font-size="11" lengthAdjust="spacing" textLength="29" x="478.75" y="294.6465">match</text><text fill="#000000" font-family="sans-serif" font-size="11" lengthAdjust="spacing" textLength="45" x="564.75" y="294.6465">no-match</text><line style="stroke:#A80036;stroke-width:1.5;" x1="102.5" x2="611" y1="319.0635" y2="319.0635"/><rect fill="#FEFECE" filter="url(#fnkejg8gpsxav)" height="36.3887" rx="12.5" ry="12.5" style="stroke:#A80036;stroke-width:1.5;" width="159" x="23" y="369.0635"/><text fill="#000000" font-family="sans-serif" font-size="12" lengthAdjust="spacing" textLength="139" x="33" y="392.8154">add a meeting to timeline</text><rect fill="#FEFECE" filter="url(#fnkejg8gpsxav)" height="36.3887" rx="12.5" ry="12.5" style="stroke:#A80036;stroke-width:1.5;" width="29" x="192" y="369.0635"/><text fill="#000000" font-family="sans-serif" font-size="12" lengthAdjust="spacing" textLength="9" x="202" y="392.8154">...</text><rect fill="#FEFECE" filter="url(#fnkejg8gpsxav)" height="36.3887" rx="12.5" ry="12.5" style="stroke:#A80036;stroke-width:1.5;" width="166" x="249" y="369.0635"/><text fill="#000000" font-family="sans-serif" font-size="12" lengthAdjust="spacing" textLength="146" x="259" y="392.8154">redirect file content to input</text><rect fill="#FEFECE" filter="url(#fnkejg8gpsxav)" height="36.3887" rx="12.5" ry="12.5" style="stroke:#A80036;stroke-width:1.5;" width="114" x="425" y="369.0635"/><text fill="#000000" font-family="sans-serif" font-size="12" lengthAdjust="spacing" textLength="94" x="435" y="392.8154">print by algorithm</text><rect fill="#FEFECE" filter="url(#fnkejg8gpsxav)" height="36.3887" rx="12.5" ry="12.5" style="stroke:#A80036;stroke-width:1.5;" width="88" x="567" y="340.5635"/><text fill="#000000" font-family="sans-serif" font-size="12" lengthAdjust="spacing" textLength="68" x="577" y="364.3154">exit program</text><ellipse cx="611" cy="422.9521" filter="url(#fnkejg8gpsxav)" rx="11" ry="11" style="stroke:#000000;stroke-width:1.0;fill:none;"/><ellipse cx="611" cy="422.9521" fill="#000000" rx="6" ry="6" style="stroke:#000000;stroke-width:1.0;"/><line style="stroke:#A80036;stroke-width:1.5;" x1="102.5" x2="482" y1="453.9521" y2="453.9521"/><rect fill="#FEFECE" filter="url(#fnkejg8gpsxav)" height="36.3887" rx="12.5" ry="12.5" style="stroke:#A80036;stroke-width:1.5;" width="72" x="715.5" y="319.0635"/><text fill="#000000" font-family="sans-serif" font-size="12" lengthAdjust="spacing" textLength="52" x="725.5" y="342.8154">no-match</text><rect fill="#FEFECE" filter="url(#fnkejg8gpsxav)" height="36.3887" rx="12.5" ry="12.5" style="stroke:#A80036;stroke-width:1.5;" width="125" x="689" y="390.4521"/><text fill="#000000" font-family="sans-serif" font-size="12" lengthAdjust="spacing" textLength="105" x="699" y="414.2041">report internal error</text><polygon fill="#FEFECE" filter="url(#fnkejg8gpsxav)" points="536.25,461.4521,548.25,473.4521,536.25,485.4521,524.25,473.4521,536.25,461.4521" style="stroke:#A80036;stroke-width:1.5;"/><rect fill="#FFE0E0" filter="url(#fnkejg8gpsxav)" height="238.2861" style="stroke:#000000;stroke-width:2.0;" width="172" x="836" y="245.9434"/><path d="M874,245.9434 L874,258.0635 L864,268.0635 L836,268.0635 " fill="none" style="stroke:#000000;stroke-width:2.0;"/><text fill="#000000" font-family="sans-serif" font-size="14" lengthAdjust="spacing" textLength="28" x="839" y="262.9873">Help</text><rect fill="#FEFECE" filter="url(#fnkejg8gpsxav)" height="36.3887" rx="12.5" ry="12.5" style="stroke:#A80036;stroke-width:1.5;" width="146" x="849" y="285.0635"/><text fill="#000000" font-family="sans-serif" font-size="12" lengthAdjust="spacing" textLength="126" x="859" y="308.8154">add request to timeline</text><rect fill="#FEFECE" filter="url(#fnkejg8gpsxav)" height="36.3887" rx="12.5" ry="12.5" style="stroke:#A80036;stroke-width:1.5;" width="143" x="850.5" y="356.4521"/><text fill="#000000" font-family="sans-serif" font-size="12" lengthAdjust="spacing" textLength="123" x="860.5" y="380.2041">prompt syntax warning</text><rect fill="#FEFECE" filter="url(#fnkejg8gpsxav)" height="36.3887" rx="12.5" ry="12.5" style="stroke:#A80036;stroke-width:1.5;" width="152" x="846" y="427.8408"/><text fill="#000000" font-family="sans-serif" font-size="12" lengthAdjust="spacing" textLength="132" x="856" y="451.5928">generate help message</text><polygon fill="#FEFECE" filter="url(#fnkejg8gpsxav)" points="738.125,503.4521,750.125,515.4521,738.125,527.4521,726.125,515.4521,738.125,503.4521" style="stroke:#A80036;stroke-width:1.5;"/><rect fill="#FEFECE" filter="url(#fnkejg8gpsxav)" height="36.3887" rx="12.5" ry="12.5" style="stroke:#A80036;stroke-width:1.5;" width="104" x="686.125" y="99.166"/><text fill="#000000" font-family="sans-serif" font-size="12" lengthAdjust="spacing" textLength="84" x="696.125" y="122.918">read command</text><line style="stroke:#A80036;stroke-width:1.5;" x1="611" x2="611" y1="376.9521" y2="411.9521"/><polygon fill="#A80036" points="607,401.9521,611,411.9521,615,401.9521,611,405.9521" style="stroke:#A80036;stroke-width:1.0;"/><line style="stroke:#A80036;stroke-width:1.5;" x1="102.5" x2="102.5" y1="320.5635" y2="369.0635"/><polygon fill="#A80036" points="98.5,359.0635,102.5,369.0635,106.5,359.0635,102.5,363.0635" style="stroke:#A80036;stroke-width:1.0;"/><text fill="#000000" font-family="sans-serif" font-size="11" lengthAdjust="spacing" textLength="55" x="106.5" y="349.908">addMeeting</text><line style="stroke:#A80036;stroke-width:1.5;" x1="206.5" x2="206.5" y1="320.5635" y2="369.0635"/><polygon fill="#A80036" points="202.5,359.0635,206.5,369.0635,210.5,359.0635,206.5,363.0635" style="stroke:#A80036;stroke-width:1.0;"/><text fill="#000000" font-family="sans-serif" font-size="11" lengthAdjust="spacing" textLength="69" x="210.5" y="349.908">otherBookings</text><line style="stroke:#A80036;stroke-width:1.5;" x1="332" x2="332" y1="320.5635" y2="369.0635"/><polygon fill="#A80036" points="328,359.0635,332,369.0635,336,359.0635,332,363.0635" style="stroke:#A80036;stroke-width:1.0;"/><text fill="#000000" font-family="sans-serif" font-size="11" lengthAdjust="spacing" textLength="46" x="336" y="349.908">addBatch</text><line style="stroke:#A80036;stroke-width:1.5;" x1="482" x2="482" y1="320.5635" y2="369.0635"/><polygon fill="#A80036" points="478,359.0635,482,369.0635,486,359.0635,482,363.0635" style="stroke:#A80036;stroke-width:1.0;"/><text fill="#000000" font-family="sans-serif" font-size="11" lengthAdjust="spacing" textLength="65" x="486" y="349.908">printBookings</text><line style="stroke:#A80036;stroke-width:1.5;" x1="611" x2="611" y1="320.5635" y2="340.5635"/><polygon fill="#A80036" points="607,330.5635,611,340.5635,615,330.5635,611,334.5635" style="stroke:#A80036;stroke-width:1.0;"/><text fill="#000000" font-family="sans-serif" font-size="11" lengthAdjust="spacing" textLength="58" x="615" y="335.658">endProgram</text><line style="stroke:#A80036;stroke-width:1.5;" x1="102.5" x2="102.5" y1="405.4521" y2="453.9521"/><polygon fill="#A80036" points="98.5,443.9521,102.5,453.9521,106.5,443.9521,102.5,447.9521" style="stroke:#A80036;stroke-width:1.0;"/><line style="stroke:#A80036;stroke-width:1.5;" x1="206.5" x2="206.5" y1="405.4521" y2="453.9521"/><polygon fill="#A80036" points="202.5,443.9521,206.5,453.9521,210.5,443.9521,206.5,447.9521" style="stroke:#A80036;stroke-width:1.0;"/><line style="stroke:#A80036;stroke-width:1.5;" x1="332" x2="332" y1="405.4521" y2="453.9521"/><polygon fill="#A80036" points="328,443.9521,332,453.9521,336,443.9521,332,447.9521" style="stroke:#A80036;stroke-width:1.0;"/><line style="stroke:#A80036;stroke-width:1.5;" x1="482" x2="482" y1="405.4521" y2="453.9521"/><polygon fill="#A80036" points="478,443.9521,482,453.9521,486,443.9521,482,447.9521" style="stroke:#A80036;stroke-width:1.0;"/><line style="stroke:#A80036;stroke-width:1.5;" x1="751.5" x2="751.5" y1="355.4521" y2="390.4521"/><polygon fill="#A80036" points="747.5,380.4521,751.5,390.4521,755.5,380.4521,751.5,384.4521" style="stroke:#A80036;stroke-width:1.0;"/><line style="stroke:#A80036;stroke-width:1.5;" x1="507.75" x2="339" y1="297.0635" y2="297.0635"/><line style="stroke:#A80036;stroke-width:1.5;" x1="339" x2="339" y1="297.0635" y2="319.0635"/><polygon fill="#A80036" points="335,309.0635,339,319.0635,343,309.0635,339,313.0635" style="stroke:#A80036;stroke-width:1.0;"/><line style="stroke:#A80036;stroke-width:1.5;" x1="564.75" x2="751.5" y1="297.0635" y2="297.0635"/><line style="stroke:#A80036;stroke-width:1.5;" x1="751.5" x2="751.5" y1="297.0635" y2="319.0635"/><polygon fill="#A80036" points="747.5,309.0635,751.5,319.0635,755.5,309.0635,751.5,313.0635" style="stroke:#A80036;stroke-width:1.0;"/><line style="stroke:#A80036;stroke-width:1.5;" x1="339" x2="339" y1="455.4521" y2="473.4521"/><line style="stroke:#A80036;stroke-width:1.5;" x1="339" x2="524.25" y1="473.4521" y2="473.4521"/><polygon fill="#A80036" points="514.25,469.4521,524.25,473.4521,514.25,477.4521,518.25,473.4521" style="stroke:#A80036;stroke-width:1.0;"/><line style="stroke:#A80036;stroke-width:1.5;" x1="751.5" x2="751.5" y1="426.8408" y2="473.4521"/><line style="stroke:#A80036;stroke-width:1.5;" x1="751.5" x2="548.25" y1="473.4521" y2="473.4521"/><polygon fill="#A80036" points="558.25,469.4521,548.25,473.4521,558.25,477.4521,554.25,473.4521" style="stroke:#A80036;stroke-width:1.0;"/><line style="stroke:#A80036;stroke-width:1.5;" x1="922" x2="922" y1="321.4521" y2="356.4521"/><polygon fill="#A80036" points="918,346.4521,922,356.4521,926,346.4521,922,350.4521" style="stroke:#A80036;stroke-width:1.0;"/><line style="stroke:#A80036;stroke-width:1.5;" x1="922" x2="922" y1="392.8408" y2="427.8408"/><polygon fill="#A80036" points="918,417.8408,922,427.8408,926,417.8408,922,421.8408" style="stroke:#A80036;stroke-width:1.0;"/><line style="stroke:#A80036;stroke-width:1.5;" x1="712.125" x2="536.25" y1="223.9434" y2="223.9434"/><line style="stroke:#A80036;stroke-width:1.5;" x1="536.25" x2="536.25" y1="223.9434" y2="285.0635"/><polygon fill="#A80036" points="532.25,275.0635,536.25,285.0635,540.25,275.0635,536.25,279.0635" style="stroke:#A80036;stroke-width:1.0;"/><line style="stroke:#A80036;stroke-width:1.5;" x1="764.125" x2="922" y1="223.9434" y2="223.9434"/><line style="stroke:#A80036;stroke-width:1.5;" x1="922" x2="922" y1="223.9434" y2="285.0635"/><polygon fill="#A80036" points="918,275.0635,922,285.0635,926,275.0635,922,279.0635" style="stroke:#A80036;stroke-width:1.0;"/><line style="stroke:#A80036;stroke-width:1.5;" x1="536.25" x2="536.25" y1="485.4521" y2="515.4521"/><line style="stroke:#A80036;stroke-width:1.5;" x1="536.25" x2="726.125" y1="515.4521" y2="515.4521"/><polygon fill="#A80036" points="716.125,511.4521,726.125,515.4521,716.125,519.4521,720.125,515.4521" style="stroke:#A80036;stroke-width:1.0;"/><line style="stroke:#A80036;stroke-width:1.5;" x1="922" x2="922" y1="464.2295" y2="515.4521"/><line style="stroke:#A80036;stroke-width:1.5;" x1="922" x2="750.125" y1="515.4521" y2="515.4521"/><polygon fill="#A80036" points="760.125,511.4521,750.125,515.4521,760.125,519.4521,756.125,515.4521" style="stroke:#A80036;stroke-width:1.0;"/><line style="stroke:#A80036;stroke-width:1.5;" x1="738.125" x2="738.125" y1="191.9434" y2="211.9434"/><polygon fill="#A80036" points="734.125,201.9434,738.125,211.9434,742.125,201.9434,738.125,205.9434" style="stroke:#A80036;stroke-width:1.0;"/><line style="stroke:#A80036;stroke-width:1.5;" x1="738.125" x2="738.125" y1="135.5547" y2="155.5547"/><polygon fill="#A80036" points="734.125,145.5547,738.125,155.5547,742.125,145.5547,738.125,149.5547" style="stroke:#A80036;stroke-width:1.0;"/><line style="stroke:#A80036;stroke-width:1.5;" x1="738.125" x2="738.125" y1="527.4521" y2="575.4521"/><line style="stroke:#A80036;stroke-width:1.5;" x1="738.125" x2="1022" y1="575.4521" y2="575.4521"/><polygon fill="#A80036" points="1018,338.9063,1022,328.9063,1026,338.9063,1022,334.9063" style="stroke:#A80036;stroke-width:1.5;"/><line style="stroke:#A80036;stroke-width:1.5;" x1="1022" x2="1022" y1="117.3604" y2="575.4521"/><line style="stroke:#A80036;stroke-width:1.5;" x1="1022" x2="790.125" y1="117.3604" y2="117.3604"/><polygon fill="#A80036" points="800.125,113.3604,790.125,117.3604,800.125,121.3604,796.125,117.3604" style="stroke:#A80036;stroke-width:1.0;"/><line style="stroke:#A80036;stroke-width:1.5;" x1="738.125" x2="738.125" y1="79.166" y2="99.166"/><polygon fill="#A80036" points="734.125,89.166,738.125,99.166,742.125,89.166,738.125,93.166" style="stroke:#A80036;stroke-width:1.0;"/><text fill="#888888" font-family="sans-serif" font-size="10" lengthAdjust="spacing" textLength="493" x="543" y="586.9121">RBM(Room Booking Manager) proposed by Group G06: MAN Furui, WANG Meng, WU Junyu, XING Shiji.</text><text fill="#888888" font-family="sans-serif" font-size="10" lengthAdjust="spacing" textLength="442" x="594" y="600.5693">COMP2432 Operating Systems, Year 2020-21 Spring, The Hong Kong Polytechnic University.</text><!--MD5=[8840435f6d5fcfb5d7e309acd627eea2]
@startuml
title __Room Booking Manager Activity Diagram__\n

' skinparam ConditionEndStyle hline
skinparam BackgroundColor transparent

start
repeat :read command;
	:process command;

	if (valid?) then
		->yes;
		partition Execution #application {
			if (switch)
				->match;
			split
				->addMeeting;
				:add a meeting to timeline;
			split again
				->otherBookings;
				:...;
			split again 
				->addBatch;
				:redirect file content to input;
			split again 
				->printBookings;
				:print by algorithm;
			split again
				->endProgram;
				:exit program;
				stop
			endsplit
			else 
				->no-match;
				:no-match;
				:report internal error;
			endif
		}
	else
		->no;
		partition Help #implementation {
			:add request to timeline;
			:prompt syntax warning;
			:generate help message;
		}
	endif
repeat while

right footer
RBM(Room Booking Manager) proposed by Group G06: MAN Furui, WANG Meng, WU Junyu, XING Shiji.
COMP2432 Operating Systems, Year 2020-21 Spring, The Hong Kong Polytechnic University.
endfooter

@enduml

@startuml
title __Room Booking Manager Activity Diagram__\n

skinparam BackgroundColor transparent

start
repeat :read command;
	:process command;

	if (valid?) then
		->yes;
		partition Execution #application {
			if (switch)
				->match;
			split
				->addMeeting;
				:add a meeting to timeline;
			split again
				->otherBookings;
				:...;
			split again 
				->addBatch;
				:redirect file content to input;
			split again 
				->printBookings;
				:print by algorithm;
			split again
				->endProgram;
				:exit program;
				stop
			endsplit
			else 
				->no-match;
				:no-match;
				:report internal error;
			endif
		}
	else
		->no;
		partition Help #implementation {
			:add request to timeline;
			:prompt syntax warning;
			:generate help message;
		}
	endif
repeat while

right footer
RBM(Room Booking Manager) proposed by Group G06: MAN Furui, WANG Meng, WU Junyu, XING Shiji.
COMP2432 Operating Systems, Year 2020-21 Spring, The Hong Kong Polytechnic University.
endfooter

@enduml

PlantUML version 1.2021.4(Sun Apr 04 16:49:39 CST 2021)
(GPL source distribution)
Java Runtime: Java(TM) SE Runtime Environment
JVM: Java HotSpot(TM) Client VM
Default Encoding: GBK
Language: zh
Country: CN
--></g></svg>